<svg xmlns="http://www.w3.org/2000/svg" viewBox="0 0 100 100">
  <!-- Background -->
  <rect width="100" height="100" fill="#4F46E5" rx="20"/>

  <!-- Calendar base -->
  <rect x="20" y="25" width="60" height="55" fill="white" rx="4"/>

  <!-- Calendar header -->
  <rect x="20" y="25" width="60" height="12" fill="#818CF8" rx="4"/>
  <rect x="20" y="33" width="60" height="4" fill="#818CF8"/>

  <!-- Calendar rings/binding -->
  <circle cx="32" cy="28" r="2" fill="white"/>
  <circle cx="50" cy="28" r="2" fill="white"/>
  <circle cx="68" cy="28" r="2" fill="white"/>

  <!-- Calendar grid (schedule lines) -->
  <!-- Row 1 -->
  <rect x="25" y="42" width="8" height="8" fill="#4F46E5" rx="1"/>
  <rect x="36" y="42" width="8" height="8" fill="#E0E7FF" rx="1"/>
  <rect x="47" y="42" width="8" height="8" fill="#E0E7FF" rx="1"/>
  <rect x="58" y="42" width="8" height="8" fill="#E0E7FF" rx="1"/>
  <rect x="69" y="42" width="8" height="8" fill="#E0E7FF" rx="1"/>

  <!-- Row 2 -->
  <rect x="25" y="52" width="8" height="8" fill="#E0E7FF" rx="1"/>
  <rect x="36" y="52" width="8" height="8" fill="#4F46E5" rx="1"/>
  <rect x="47" y="52" width="8" height="8" fill="#E0E7FF" rx="1"/>
  <rect x="58" y="52" width="8" height="8" fill="#818CF8" rx="1"/>
  <rect x="69" y="52" width="8" height="8" fill="#E0E7FF" rx="1"/>

  <!-- Row 3 -->
  <rect x="25" y="62" width="8" height="8" fill="#E0E7FF" rx="1"/>
  <rect x="36" y="62" width="8" height="8" fill="#E0E7FF" rx="1"/>
  <rect x="47" y="62" width="8" height="8" fill="#4F46E5" rx="1"/>
  <rect x="58" y="62" width="8" height="8" fill="#E0E7FF" rx="1"/>
  <rect x="69" y="62" width="8" height="8" fill="#818CF8" rx="1"/>

  <!-- Row 4 -->
  <rect x="25" y="72" width="8" height="8" fill="#818CF8" rx="1"/>
  <rect x="36" y="72" width="8" height="8" fill="#E0E7FF" rx="1"/>
  <rect x="47" y="72" width="8" height="8" fill="#E0E7FF" rx="1"/>
  <rect x="58" y="72" width="8" height="8" fill="#4F46E5" rx="1"/>
  <rect x="69" y="72" width="8" height="8" fill="#E0E7FF" rx="1"/>
</svg>
